HIERARCHY
ROOT Hips
{
	OFFSET 0.00000 0.00000 0.00000
	CHANNELS 6 Xposition Yposition Zposition Zrotation Yrotation Xrotation 
	JOINT LHipJoint
	{
		OFFSET 0 0 0
		CHANNELS 3 Zrotation Yrotation Xrotation
		JOINT LeftHip
		{
			OFFSET 1.57338 -1.94743 0.52196
			CHANNELS 3 Zrotation Yrotation Xrotation
			JOINT LeftKnee
			{
				OFFSET 2.60333 -7.15259 0.00000
				CHANNELS 3 Zrotation Yrotation Xrotation
				JOINT LeftAnkle
				{
					OFFSET 2.77855 -7.63400 0.00000
					CHANNELS 3 Zrotation Yrotation Xrotation
					JOINT LeftToe
					{
						OFFSET 0.19847 -0.54529 2.28466
						CHANNELS 3 Zrotation Yrotation Xrotation
						End Site
						{
							OFFSET 0.00000 -0.00000 1.17993
						}
					}
				}
			}
		}
	}
	JOINT RHipJoint
	{
		OFFSET 0 0 0
		CHANNELS 3 Zrotation Yrotation Xrotation
		JOINT RightHip
		{
			OFFSET -1.61527 -1.94743 0.52196
			CHANNELS 3 Zrotation Yrotation Xrotation
			JOINT RightKnee
			{
				OFFSET -2.53829 -6.97390 0.00000
				CHANNELS 3 Zrotation Yrotation Xrotation
				JOINT RightAnkle
				{
					OFFSET -2.80762 -7.71387 0.00000
					CHANNELS 3 Zrotation Yrotation Xrotation
					JOINT RightToe
					{
						OFFSET -0.30536 -0.83898 2.28801
						CHANNELS 3 Zrotation Yrotation Xrotation
						End Site
						{
							OFFSET -0.00000 -0.00000 1.21323
						}
					}
				}
			}
		}
	}
	JOINT lowerback
	{
		OFFSET 0 0 0
		CHANNELS 3 Zrotation Yrotation Xrotation
		JOINT Chest
		{
			OFFSET -0.04381 1.99497 -0.19778
			CHANNELS 3 Zrotation Yrotation Xrotation
			JOINT Chest2
			{
				OFFSET -0.01959 2.01295 -0.04372
				CHANNELS 3 Zrotation Yrotation Xrotation
				JOINT lowerneck
				{
					OFFSET 0 0 0
					CHANNELS 3 Zrotation Yrotation Xrotation
					JOINT Neck
					{
						OFFSET -0.05459 1.76913 0.09708
						CHANNELS 3 Zrotation Yrotation Xrotation
						JOINT Head
						{
							OFFSET 0.09461 1.77368 -0.11172
							CHANNELS 3 Zrotation Yrotation Xrotation
							End Site
							{
								OFFSET 0.03812 1.78157 -0.04834
							}
						}
					}
				}
				JOINT LeftCollar
				{
					OFFSET 0 0 0
					CHANNELS 3 Zrotation Yrotation Xrotation
					JOINT LeftShoulder
					{
						OFFSET 3.50922 1.24034 -0.28866
CHANNELS 3 Zrotation Xrotation Yrotation
						JOINT LeftElbow
						{
OFFSET 0 -5.401880 0.000000
CHANNELS 3 Zrotation Xrotation Yrotation
							JOINT LeftWrist
							{
OFFSET 0 -3.685590 0.000000
CHANNELS 3 Zrotation Xrotation Yrotation
								JOINT lhand
								{
									OFFSET 0 0 0
CHANNELS 3 Zrotation Xrotation Yrotation
									JOINT LFingers
									{
OFFSET 0 -0.617530 0.000000
CHANNELS 3 Zrotation Xrotation Yrotation
										End Site
										{
OFFSET 0 -0.497870 0.000000
										}
									}
								}
								JOINT LThumb
								{
OFFSET 0 0.000000 0.000000
CHANNELS 3 Zrotation Xrotation Yrotation
									End Site
									{
OFFSET 0 -0.505470 0.505470
									}
								}
							}
						}
					}
				}
				JOINT RightCollar
				{
					OFFSET 0 0 0
					CHANNELS 3 Zrotation Yrotation Xrotation
					JOINT RightShoulder
					{
						OFFSET -2.95373 1.39649 -0.27346
CHANNELS 3 Zrotation Xrotation Yrotation
						JOINT RightElbow
						{
OFFSET 0 -6.106700 -0.000000
CHANNELS 3 Zrotation Xrotation Yrotation
							JOINT RightWrist
							{
OFFSET 0 -3.630520 0.000000
CHANNELS 3 Zrotation Xrotation Yrotation
								JOINT rhand
								{
									OFFSET 0 0 0
CHANNELS 3 Zrotation Xrotation Yrotation
									JOINT RFingers
									{
OFFSET 0 -0.583850 0.000000
CHANNELS 3 Zrotation Xrotation Yrotation
										End Site
										{
OFFSET 0 -0.470710 0.000000
										}
									}
								}
								JOINT RThumb
								{
OFFSET 0 0.000000 0.000000
CHANNELS 3 Zrotation Xrotation Yrotation
									End Site
									{
OFFSET 0 -0.477900 0.477900
									}
								}
							}
						}
					}
				}
			}
		}
	}
}
MOTION
Frames: 8
Frame Time: 0.008333333333333333
-4.717000 18.507000 2.767600 17.993900 -78.734900 -14.995300 0.000000 0.000000 0.000000 -22.866100 -11.403500 -6.442700 1.961900 8.786200 25.128900 0.785800 6.544200 -20.368900 0.211900 -2.963600 -8.177500 0.000000 0.000000 0.000000 15.452400 20.366400 -2.166400 -2.766700 -10.307400 29.978000 -1.880300 -11.331900 -32.070800 -0.025500 -1.031800 2.836300 -5.597600 2.642700 0.870300 -2.729700 3.376600 -0.485100 0.256200 1.696000 -1.147600 -4.918400 -0.477700 -12.888300 6.665000 -0.518900 8.020200 2.830300 0.002500 4.533600 -0.000000 0.000000 0.000000 6.207700 1.843600 -6.134200 11.863700 -19.599900 2.056300 21.507400 14.343600 -22.424100 0.000000 0.000000 0.000000 -7.125000 0.000000 0.000000 -7.804800 53.731200 1.683400 -0.000000 0.000000 0.000000 -8.816500 6.109700 31.882700 -17.265100 -27.206000 -4.207800 -30.145800 14.569700 2.578100 0.000000 0.000000 0.000000 7.125000 0.000000 -0.000000 -2.886200 32.950800 -0.853000
-4.714790 18.501242 2.793795 18.810398 -78.898637 -15.957567 0.000000 0.000000 0.000000 -23.077138 -10.967642 -6.373465 1.948832 8.758657 25.043284 0.774384 6.492637 -20.219968 0.235370 -3.122570 -8.620129 0.000000 0.000000 0.000000 15.366949 20.742531 -1.925354 -2.788125 -10.343919 30.097929 -1.903986 -11.391046 -32.256082 -0.031081 -1.137471 3.127163 -5.749603 2.652506 1.136726 -2.756452 3.362304 -0.506275 0.298608 1.692931 -1.325745 -5.128844 -0.623816 -12.838405 6.791403 -0.681087 7.717654 2.889484 -0.078560 4.443342 0.000000 0.000000 0.000000 6.843002 2.031668 -6.212216 11.869801 -19.609052 2.058358 22.818927 13.489113 -22.139976 0.000000 0.000000 0.000000 -7.125000 0.000000 0.000000 -6.360136 53.686032 1.362411 0.000000 0.000000 0.000000 -9.250725 5.845065 31.090583 -17.528529 -27.549315 -4.329010 -29.323788 14.598339 2.480469 0.000000 0.000000 0.000000 7.125000 0.000000 0.000000 -2.216658 32.818327 -0.662493
-4.717509 18.504060 2.811349 17.119235 -78.954375 -14.041971 0.000000 0.000000 0.000000 -22.734029 -11.327143 -6.599927 1.970099 8.803605 25.182877 0.786662 6.611181 -20.427082 0.207041 -2.929719 -8.083275 0.000000 0.000000 0.000000 15.628427 20.926942 -2.055710 -2.767646 -10.309046 29.983385 -1.903007 -11.491285 -32.323220 -0.029485 -1.108207 3.046542 -5.573551 2.533109 0.989373 -2.722688 3.216361 -0.579035 0.245637 1.620257 -1.302955 -5.108330 -0.798789 -12.696893 6.754992 -0.893267 7.055844 2.853412 -0.191092 4.230205 0.000000 0.000000 0.000000 8.034364 1.933869 -5.674473 12.022760 -19.838717 2.109999 21.851780 13.504353 -22.321733 0.000000 0.000000 0.000000 -7.125000 0.000000 0.000000 -7.412607 53.691879 1.586897 0.000000 0.000000 0.000000 -9.959731 5.516870 31.200333 -17.992342 -28.147235 -4.545653 -28.961722 12.906395 0.897767 0.000000 0.000000 0.000000 7.125000 0.000000 0.000000 -1.906649 31.003093 -0.651261
-4.731739 18.498439 2.857546 18.852091 -79.124370 -15.723515 0.000000 0.000000 0.000000 -23.191249 -11.034520 -6.614612 1.972679 8.808849 25.199182 0.808715 6.472971 -20.537948 0.209754 -2.948598 -8.135579 0.000000 0.000000 0.000000 15.126146 20.935709 -2.045029 -2.768589 -10.310679 29.988829 -1.925828 -11.280392 -32.305939 -0.025345 -1.026921 2.822918 -5.709261 2.609529 0.778456 -2.957695 3.330783 -0.472001 0.090464 1.668646 -1.073712 -5.297095 -1.079726 -12.718370 7.113234 -1.255011 6.582660 2.966744 -0.357775 4.115389 0.000000 0.000000 0.000000 9.540326 1.846547 -6.395681 12.751427 -20.921683 2.363956 22.099887 12.070538 -22.241464 0.000000 0.000000 0.000000 -7.125000 0.000000 0.000000 -7.132337 53.654824 1.522888 0.000000 0.000000 0.000000 -10.615535 5.014086 30.315503 -18.708024 -29.054218 -4.888215 -28.227622 9.459296 -5.236812 0.000000 0.000000 0.000000 7.125000 0.000000 0.000000 -1.147247 24.041160 -0.580177
-4.747277 18.495505 2.915452 19.674193 -79.569043 -16.605421 0.000000 0.000000 0.000000 -23.424777 -10.728174 -6.670606 2.021915 8.911538 25.518935 0.867348 6.343520 -20.999985 0.167033 -2.632936 -7.258530 0.000000 0.000000 0.000000 14.820142 20.760895 -1.964185 -2.727487 -10.240297 29.758354 -1.902846 -10.948472 -31.930214 -0.016247 -0.823585 2.263664 -5.733724 2.632825 0.662843 -2.937251 3.374535 -0.415779 0.131452 1.687520 -0.955478 -5.537622 -1.163058 -12.419856 7.241104 -1.324154 5.979042 3.036903 -0.400849 3.889676 0.000000 0.000000 0.000000 11.058105 1.841772 -6.122400 13.863504 -22.539255 2.775641 23.041051 11.321965 -21.631720 0.000000 0.000000 0.000000 -7.125000 0.000000 0.000000 -5.964258 53.195778 1.205819 0.000000 0.000000 0.000000 -11.954827 4.469702 29.554565 -19.924887 -30.551511 -5.493236 -28.045929 9.599271 -5.540428 0.000000 0.000000 0.000000 7.125000 0.000000 0.000000 -0.997909 23.707756 -0.512806
-4.754590 18.493222 2.959204 19.243010 -79.953042 -16.129001 0.000000 0.000000 0.000000 -23.403808 -10.705149 -6.740851 2.049376 8.968081 25.695541 0.875587 6.627054 -21.279587 0.190561 -2.811077 -7.753278 0.000000 0.000000 0.000000 14.770823 20.722090 -2.078502 -2.721054 -10.229183 29.722026 -1.895690 -10.631443 -31.661771 -0.012500 -0.720972 1.981281 -5.619074 2.667427 0.606647 -2.915122 3.426767 -0.432392 0.092160 1.713406 -0.937897 -5.529965 -1.308621 -12.398022 7.182835 -1.504861 5.722071 3.003501 -0.495545 3.819143 0.000000 0.000000 0.000000 13.159536 1.781401 -6.812451 15.545262 -24.899677 3.452553 22.365540 9.155787 -21.853278 0.000000 0.000000 0.000000 -7.125000 0.000000 0.000000 -6.727444 53.300584 1.378431 0.000000 0.000000 0.000000 -13.597935 3.724661 28.680540 -21.710599 -32.647491 -6.429411 -28.061091 9.044097 -5.937422 0.000000 0.000000 0.000000 7.125000 0.000000 0.000000 -0.990281 23.258361 -0.518901
-4.760097 18.487123 3.021514 17.405827 -80.257428 -14.439915 0.000000 0.000000 0.000000 -23.210496 -10.715850 -6.735947 2.121559 9.114757 26.154997 0.954577 6.407984 -21.842556 0.150798 -2.502006 -6.895212 0.000000 0.000000 0.000000 14.948047 20.320972 -1.978084 -2.679049 -10.156372 29.484715 -1.888533 -10.175696 -31.298844 -0.013164 -0.740120 2.033983 -5.269963 2.478421 0.848103 -2.756354 3.165516 -0.453527 0.055808 1.586705 -1.073189 -5.755462 -1.341518 -11.938388 7.530150 -1.529326 4.927130 3.142713 -0.510681 3.510295 0.000000 0.000000 0.000000 15.300523 1.716125 -6.729271 17.809722 -27.911898 4.460236 22.343274 6.740073 -22.103950 0.000000 0.000000 0.000000 -7.125000 0.000000 0.000000 -6.835792 53.557612 1.443805 0.000000 0.000000 0.000000 -15.767147 2.801722 28.317983 -24.357416 -35.538415 -7.913975 -28.502697 8.292905 -5.546743 0.000000 0.000000 0.000000 7.125000 0.000000 0.000000 -1.336295 23.674422 -0.686710
-4.772820 18.478697 3.076629 19.017242 -80.738339 -16.185553 0.000000 0.000000 0.000000 -23.479653 -9.830051 -6.784814 2.123446 9.118680 26.167216 0.993627 5.952535 -21.880871 0.124099 -2.270893 -6.254975 0.000000 0.000000 0.000000 14.642422 20.446102 -2.009822 -2.737615 -10.257649 29.815108 -1.895067 -9.867364 -31.126582 -0.007954 -0.574542 1.578816 -5.593927 2.440970 0.935489 -2.657101 3.112315 -0.321676 0.337488 1.559235 -1.007283 -6.376352 -1.614537 -11.700596 7.948871 -1.798572 3.895522 3.352941 -0.650188 3.188873 0.000000 0.000000 0.000000 17.617703 1.314815 -6.925183 20.709029 -31.486249 5.897553 22.276724 3.711699 -22.020823 0.000000 0.000000 0.000000 -7.125000 0.000000 0.000000 -6.875214 53.458448 1.435427 0.000000 0.000000 0.000000 -18.093884 1.405283 26.574350 -27.629935 -38.772021 -9.891564 -29.311155 6.973520 -6.292102 0.000000 0.000000 0.000000 7.125000 0.000000 0.000000 -1.890015 22.774430 -1.010691
